<svg id="circle-content" xmlns="http://www.w3.org/2000/svg" xmlns:xlink="http://www.w3.org/1999/xlink" width="186.605" height="195.126" viewBox="0 0 186.605 195.126">
  <defs>
    <clipPath id="clip-path">
      <rect id="Rectangle_773" data-name="Rectangle 773" width="186.605" height="195.126" fill="#1c3557"/>
    </clipPath>
  </defs>
  <rect id="Rectangle_769" data-name="Rectangle 769" width="6.637" height="7.475" transform="translate(3.624 98.281) rotate(-88.293)" fill="#1c3557"/>
  <path id="Path_29503" data-name="Path 29503" d="M1.015,181.729l1.338-2.8,15.21,4.376.24-.5L5.248,172.983l1.487-3.115,15.528,3.586.251-.527L9.545,163.856l1.338-2.8,14.842,11.054L23.678,176.4,9.2,172.955l11.795,9.07-2.058,4.313Z" transform="translate(-0.729 -115.596)" fill="#1c3557"/>
  <path id="Path_29504" data-name="Path 29504" d="M63.507,133.151,49.348,121.785l7.179-8.943,2.005,1.609L53.2,121.1l4.01,3.219,4.338-5.4,1.984,1.593-4.338,5.4,4.134,3.319,5.335-6.645,2.026,1.626Z" transform="translate(-35.42 -80.993)" fill="#1c3557"/>
  <path id="Path_29505" data-name="Path 29505" d="M122.434,84.182l-7.268-17.232,4.7-3.51,14.479,11.849-2.382,1.779-3.118-2.535-5.595,4.177,1.544,3.71Zm-3.963-16.623,3.695,8.72,4.659-3.478-7.29-6.036Z" transform="translate(-82.662 -45.534)" fill="#1c3557"/>
  <g id="Group_73908" data-name="Group 73908">
    <g id="Group_73907" data-name="Group 73907" clip-path="url(#clip-path)">
      <path id="Path_29506" data-name="Path 29506" d="M168.65,43.934l2.8,5.831-2.657,1.274-7.852-16.371,6.223-2.985q5.552-2.663,8.052,2.546,1.674,3.49-.411,6.018l5.789,5.131-2.92,1.4L172.5,42.085Zm3.847-8.371q-1.41-2.94-4.235-1.585L164.7,35.688l2.854,5.951,3.614-1.734a2.834,2.834,0,0,0,1.711-1.835,3.728,3.728,0,0,0-.378-2.508" transform="translate(-115.514 -22.094)" fill="#1c3557"/>
      <path id="Path_29507" data-name="Path 29507" d="M227.165,27.761,222.441,10.23l11.073-2.984.669,2.483-8.228,2.217,1.338,4.965,6.69-1.8.662,2.457-6.69,1.8,1.379,5.118,8.228-2.217.676,2.508Z" transform="translate(-159.658 -5.201)" fill="#1c3557"/>
      <path id="Path_29508" data-name="Path 29508" d="M310.329,18.74q-3.981.08-5.446-2.091t-1.565-7.206q-.1-5.035,1.289-7.2T309.953,0a23.073,23.073,0,0,1,5.215.558l-.058,2.387a27.335,27.335,0,0,0-4.786-.328q-2.389.048-3.21,1.483t-.742,5.343q.078,3.909.93,5.31t3.24,1.353a30.02,30.02,0,0,0,4.823-.494l.128,2.436a24.873,24.873,0,0,1-5.164.687" transform="translate(-217.704 -0.001)" fill="#1c3557"/>
      <path id="Path_29509" data-name="Path 29509" d="M367.619,21.713q-1.984,1.92-6.04,1.229t-5.3-3.176q-1.247-2.484-.44-7.214T358.67,5.8q2.028-2.02,6.058-1.333t5.263,3.25q1.233,2.563.422,7.318t-2.794,6.676m-8.747-3.427q.627,1.693,3.139,2.122t3.647-.938a10.92,10.92,0,0,0,1.743-4.932,11.338,11.338,0,0,0-.019-5.341,4.376,4.376,0,0,0-6.739-1.149,11.119,11.119,0,0,0-1.8,5,10.88,10.88,0,0,0,.023,5.234" transform="translate(-255.176 -3.083)" fill="#1c3557"/>
      <path id="Path_29510" data-name="Path 29510" d="M424.281,33.2l.939-2.422,4.826,1.873-3.336,8.6a23.2,23.2,0,0,1-2.854-.68q-2.119-.595-3.034-.95-3.861-1.5-4.5-4.19t1.123-7.226q1.759-4.534,4.062-6.029t5.99-.064a29.763,29.763,0,0,1,4.709,2.4l.8.509-.943,2.136a44.587,44.587,0,0,0-5.217-2.479q-2.376-.922-3.773.072t-2.8,4.6q-1.4,3.608-1.1,5.3T422,37.321a12.94,12.94,0,0,0,2.784.824l1.6-4.127Z" transform="translate(-298.699 -15.369)" fill="#1c3557"/>
      <path id="Path_29511" data-name="Path 29511" d="M462.108,58.406l9.877-15.235,4.322,2.8-3.83,16.059.334.216,8.464-13.056,2.473,1.6L473.87,66.031l-4.233-2.744,3.733-16.153-.312-.2-8.478,13.078Z" transform="translate(-331.681 -30.986)" fill="#1c3557"/>
      <rect id="Rectangle_770" data-name="Rectangle 770" width="18.157" height="2.947" transform="translate(144.743 37.514) rotate(-48.385)" fill="#1c3557"/>
      <path id="Path_29512" data-name="Path 29512" d="M530.412,118.342l13.978-11.588,3.287,3.965L539.222,124.9l.254.307,11.978-9.93,1.881,2.269-13.978,11.588-3.219-3.883,8.389-14.3-.237-.286-12,9.947Z" transform="translate(-380.706 -76.623)" fill="#1c3557"/>
      <path id="Path_29513" data-name="Path 29513" d="M568.208,174.316,584.2,165.71l5.436,10.1-2.264,1.219-4.04-7.5-4.528,2.437,3.284,6.1-2.24,1.206-3.284-6.1-4.668,2.513,4.039,7.5-2.288,1.231Z" transform="translate(-407.835 -118.939)" fill="#1c3557"/>
      <path id="Path_29514" data-name="Path 29514" d="M597.815,226.729l-6.163,1.961-.893-2.808,17.3-5.5,2.093,6.577q1.867,5.869-3.639,7.621-3.688,1.174-5.9-1.242l-5.885,5.02-.982-3.086,5.366-4.466Zm7.756,4.97q3.107-.988,2.157-3.973l-1.2-3.77-6.29,2,1.216,3.82a2.836,2.836,0,0,0,1.58,1.949,3.732,3.732,0,0,0,2.537-.027" transform="translate(-424.021 -158.177)" fill="#1c3557"/>
      <rect id="Rectangle_771" data-name="Rectangle 771" width="6.637" height="7.474" transform="translate(174.819 104.706) rotate(-87.277)" fill="#1c3557"/>
      <path id="Path_29515" data-name="Path 29515" d="M597.877,441.3l-1.3,2.822-15.271-4.159-.233.507L593.77,450.1l-1.442,3.135-15.578-3.364-.244.531,13.1,8.886-1.3,2.822-15-10.842,1.985-4.317,14.53,3.233-11.923-8.9,2-4.342Z" transform="translate(-411.494 -313.618)" fill="#1c3557"/>
      <path id="Path_29516" data-name="Path 29516" d="M544.639,503.294l14.319,11.163-7.051,9.044-2.028-1.581,5.24-6.721-4.056-3.162L546.8,517.5l-2.007-1.565,4.26-5.465-4.181-3.259-5.24,6.721-2.048-1.6Z" transform="translate(-385.857 -361.242)" fill="#1c3557"/>
      <path id="Path_29517" data-name="Path 29517" d="M491.871,551.756l7.513,17.127-4.65,3.577-14.647-11.641,2.357-1.813L485.6,561.5l5.534-4.257-1.6-3.687Zm4.2,16.565-3.819-8.666-4.609,3.545,7.375,5.931Z" transform="translate(-344.585 -396.026)" fill="#1c3557"/>
      <path id="Path_29518" data-name="Path 29518" d="M444.95,593.91l-2.88-5.791,2.638-1.312,8.085,16.257-6.18,3.074q-5.515,2.742-8.088-2.431-1.723-3.466.325-6.023l-5.861-5.049,2.9-1.442,5.233,4.621Zm-3.726,8.425q1.451,2.92,4.257,1.524l3.542-1.761-2.939-5.909-3.589,1.785a2.835,2.835,0,0,0-1.685,1.859,3.728,3.728,0,0,0,.415,2.5" transform="translate(-310.781 -421.184)" fill="#1c3557"/>
      <path id="Path_29519" data-name="Path 29519" d="M396.483,610.292l4.785,17.515L390.2,630.829l-.678-2.48,8.22-2.246-1.355-4.961-6.684,1.826-.671-2.455,6.684-1.826-1.4-5.113-8.22,2.245-.685-2.506Z" transform="translate(-276.637 -438.041)" fill="#1c3557"/>
      <path id="Path_29520" data-name="Path 29520" d="M322.493,624.925q3.98-.137,5.475,2.013t1.668,7.183q.173,5.033-1.187,7.215t-5.313,2.317a23.064,23.064,0,0,1-5.223-.483l.024-2.388a27.321,27.321,0,0,0,4.791.26q2.388-.082,3.188-1.528t.666-5.354q-.134-3.908-1.005-5.3t-3.259-1.307a30.057,30.057,0,0,0-4.815.563l-.163-2.434a24.879,24.879,0,0,1,5.154-.761" transform="translate(-227.772 -448.538)" fill="#1c3557"/>
      <path id="Path_29521" data-name="Path 29521" d="M257.873,622.6q1.956-1.949,6.022-1.316t5.347,3.1q1.282,2.466.544,7.207t-2.737,6.79q-2,2.049-6.038,1.42t-5.309-3.174q-1.269-2.545-.527-7.312t2.7-6.715m8.8,3.3q-.65-1.684-3.169-2.076t-3.634.99a10.923,10.923,0,0,0-1.672,4.957,11.333,11.333,0,0,0,.1,5.34,4.376,4.376,0,0,0,6.754,1.052,11.109,11.109,0,0,0,1.724-5.029,10.877,10.877,0,0,0-.1-5.233" transform="translate(-182.957 -445.818)" fill="#1c3557"/>
      <path id="Path_29522" data-name="Path 29522" d="M197.008,609.443l-.9,2.435-4.852-1.8,3.214-8.646a23.182,23.182,0,0,1,2.864.64q2.126.565,3.047.907,3.882,1.443,4.556,4.125t-1.021,7.241q-1.695,4.559-3.976,6.087t-5.989.149a29.7,29.7,0,0,1-4.742-2.328l-.806-.5.912-2.15a44.566,44.566,0,0,0,5.252,2.405q2.389.887,3.771-.126t2.73-4.641q1.348-3.628,1.027-5.316t-2.859-2.632a12.9,12.9,0,0,0-2.8-.785l-1.542,4.149Z" transform="translate(-135.223 -431.678)" fill="#1c3557"/>
      <path id="Path_29523" data-name="Path 29523" d="M146.507,577.136l-9.66,15.374-4.361-2.74,3.6-16.112-.337-.212-8.278,13.174-2.5-1.568,9.66-15.374,4.271,2.684-3.5,16.205.315.2,8.292-13.2Z" transform="translate(-89.704 -408.89)" fill="#1c3557"/>
      <rect id="Rectangle_772" data-name="Rectangle 772" width="18.156" height="2.947" transform="matrix(0.653, -0.757, 0.757, 0.653, 28.248, 170.173)" fill="#1c3557"/>
      <path id="Path_29524" data-name="Path 29524" d="M73.977,519.3l-13.81,11.787-3.343-3.917,8.249-14.3-.259-.3-11.834,10.1-1.913-2.242,13.81-11.787,3.274,3.836L59.968,526.9l.241.283,11.855-10.118Z" transform="translate(-36.653 -365.081)" fill="#1c3557"/>
      <path id="Path_29525" data-name="Path 29525" d="M39.222,473.1,23.36,481.932,17.78,471.913l2.246-1.251,4.147,7.445,4.492-2.5-3.372-6.054,2.223-1.238,3.372,6.053,4.631-2.58-4.147-7.445,2.269-1.264Z" transform="translate(-12.761 -332.376)" fill="#1c3557"/>
      <path id="Path_29526" data-name="Path 29526" d="M12.851,422.9l6.135-2.047.933,2.8L2.7,429.4.511,422.851q-1.95-5.842,3.531-7.671,3.671-1.225,5.92,1.159l5.814-5.1,1.025,3.072-5.3,4.54Zm-7.826-4.861q-3.093,1.032-2.1,4L4.177,425.8l6.26-2.089-1.269-3.8a2.837,2.837,0,0,0-1.607-1.927,3.733,3.733,0,0,0-2.536.063" transform="translate(0 -295.167)" fill="#1c3557"/>
    </g>
  </g>
</svg>
