<svg id="circle-brain" xmlns="http://www.w3.org/2000/svg" xmlns:xlink="http://www.w3.org/1999/xlink" width="70.485" height="68.077" viewBox="0 0 70.485 68.077">
  <defs>
    <clipPath id="clip-path">
      <rect id="Rectangle_794" data-name="Rectangle 794" width="70.485" height="68.077" fill="#1c3557"/>
    </clipPath>
  </defs>
  <g id="Group_73943" data-name="Group 73943" clip-path="url(#clip-path)">
    <path id="Path_29595" data-name="Path 29595" d="M37.37,103.323a.974.974,0,1,1-.974.975.974.974,0,0,1,.974-.975" transform="translate(-16.989 -48.229)" fill="#1c3557"/>
    <path id="Path_29596" data-name="Path 29596" d="M38.38,104.054a1.253,1.253,0,1,1-1.254-1.252,1.254,1.254,0,0,1,1.254,1.252m-1.949,0a.7.7,0,1,0,.7-.7.7.7,0,0,0-.7.7" transform="translate(-16.745 -47.986)" fill="#1c3557"/>
    <path id="Path_29597" data-name="Path 29597" d="M60.1,114.543a.974.974,0,1,1-.973.975.975.975,0,0,1,.973-.975" transform="translate(-27.598 -53.466)" fill="#1c3557"/>
    <path id="Path_29598" data-name="Path 29598" d="M61.107,115.273a1.252,1.252,0,1,1-1.254-1.251,1.254,1.254,0,0,1,1.254,1.251m-1.948,0a.7.7,0,1,0,.695-.7.7.7,0,0,0-.695.7" transform="translate(-27.354 -53.223)" fill="#1c3557"/>
    <path id="Path_29599" data-name="Path 29599" d="M44.259,54.695a.974.974,0,1,1-.974.974.974.974,0,0,1,.974-.974" transform="translate(-20.205 -25.531)" fill="#1c3557"/>
    <path id="Path_29600" data-name="Path 29600" d="M45.269,55.424a1.253,1.253,0,1,1-1.254-1.251,1.254,1.254,0,0,1,1.254,1.251m-1.949,0a.7.7,0,1,0,.7-.7.7.7,0,0,0-.7.7" transform="translate(-19.961 -25.287)" fill="#1c3557"/>
    <path id="Path_29601" data-name="Path 29601" d="M12.9,65.573a.974.974,0,1,1-.974.975.974.974,0,0,1,.974-.975" transform="translate(-5.567 -30.608)" fill="#1c3557"/>
    <path id="Path_29602" data-name="Path 29602" d="M13.91,66.3a1.253,1.253,0,1,1-1.254-1.252A1.255,1.255,0,0,1,13.91,66.3m-1.949,0a.7.7,0,1,0,.7-.7.7.7,0,0,0-.7.7" transform="translate(-5.324 -30.365)" fill="#1c3557"/>
    <path id="Path_29603" data-name="Path 29603" d="M34.27,85.366a.974.974,0,1,1-.974.974.973.973,0,0,1,.974-.974" transform="translate(-15.542 -39.847)" fill="#1c3557"/>
    <path id="Path_29604" data-name="Path 29604" d="M35.279,86.1a1.253,1.253,0,1,1-1.254-1.252A1.255,1.255,0,0,1,35.279,86.1m-1.949,0a.7.7,0,1,0,.7-.7.7.7,0,0,0-.7.7" transform="translate(-15.298 -39.603)" fill="#1c3557"/>
    <path id="Path_29605" data-name="Path 29605" d="M76.8,65.657V58.265a20.744,20.744,0,0,0,6.636-2.12,23.579,23.579,0,0,0,6.117-4.635,23.906,23.906,0,0,0,5.091-7.759A24.869,24.869,0,0,0,96.322,34.5a24.973,24.973,0,0,0-1.675-9.272,24.263,24.263,0,0,0-5.1-7.818,23.826,23.826,0,0,0-6.115-4.68A20.625,20.625,0,0,0,76.8,10.6V.528L77.07.56a30.5,30.5,0,0,1,10.6,3.084A33.2,33.2,0,0,1,96.7,10.419a34.027,34.027,0,0,1,7.216,11.043A34.832,34.832,0,0,1,106.335,34.5a35.335,35.335,0,0,1-1.108,8.846,33.515,33.515,0,0,1-3.28,8.176,33.893,33.893,0,0,1-5.175,7.014,33.044,33.044,0,0,1-6.781,5.391A31.394,31.394,0,0,1,77.083,68.3l-.28.027Z" transform="translate(-35.85 -0.246)" fill="#1c3557" fill-rule="evenodd"/>
    <path id="Path_29606" data-name="Path 29606" d="M63.872,10.538a.974.974,0,1,1-.974.975.975.975,0,0,1,.974-.975" transform="translate(-29.36 -4.919)" fill="#1c3557"/>
    <path id="Path_29607" data-name="Path 29607" d="M64.881,11.268a1.252,1.252,0,1,1-1.253-1.252,1.253,1.253,0,0,1,1.253,1.252m-1.948,0a.7.7,0,1,0,.7-.7.7.7,0,0,0-.7.7" transform="translate(-29.116 -4.675)" fill="#1c3557"/>
    <path id="Path_29608" data-name="Path 29608" d="M39.2,21.276a.974.974,0,1,1-.974.975.974.974,0,0,1,.974-.975" transform="translate(-17.842 -9.931)" fill="#1c3557"/>
    <path id="Path_29609" data-name="Path 29609" d="M40.206,22.007a1.253,1.253,0,1,1-1.253-1.251,1.255,1.255,0,0,1,1.253,1.251m-1.949,0a.7.7,0,1,0,.7-.7.7.7,0,0,0-.7.7" transform="translate(-17.598 -9.688)" fill="#1c3557"/>
    <path id="Path_29610" data-name="Path 29610" d="M60.1,43.677a.974.974,0,1,1-.973.975.973.973,0,0,1,.973-.975" transform="translate(-27.598 -20.388)" fill="#1c3557"/>
    <path id="Path_29611" data-name="Path 29611" d="M61.108,44.406a1.253,1.253,0,1,1-1.254-1.252,1.255,1.255,0,0,1,1.254,1.252m-1.949,0a.7.7,0,1,0,.7-.7.7.7,0,0,0-.7.7" transform="translate(-27.355 -20.143)" fill="#1c3557"/>
    <path id="Path_29612" data-name="Path 29612" d="M19.469,40.5a.974.974,0,1,1-.974.974.975.975,0,0,1,.974-.974" transform="translate(-8.633 -18.905)" fill="#1c3557"/>
    <path id="Path_29613" data-name="Path 29613" d="M20.479,41.23a1.252,1.252,0,1,1-1.253-1.251,1.253,1.253,0,0,1,1.253,1.251m-1.948,0a.7.7,0,1,0,.7-.7.7.7,0,0,0-.7.7" transform="translate(-8.39 -18.661)" fill="#1c3557"/>
    <path id="Path_29614" data-name="Path 29614" d="M16.4,15.092c2.824,5.649,8.873,2.935,8.577-1.346a1.339,1.339,0,0,1,2.671-.188c.487,6.912-8.791,10.647-13.1,3.731A16.309,16.309,0,0,0,2.88,30.168a10.813,10.813,0,0,1,18.38,3.309,1.336,1.336,0,0,1-2.51.918c-2.973-8.151-14.982-6.542-15.735,2.063A16.294,16.294,0,0,0,15.509,48.921a1.341,1.341,0,0,1,.823,2.062c-4.375,6.425,4.04,13.9,9.9,8.774a1.342,1.342,0,0,1,2.223.985,4.667,4.667,0,0,0,7.231,3.8,1.345,1.345,0,0,1,1.855.389c1.953,2.946-8.775,5.7-11.369-1.909a9.353,9.353,0,0,1-12.93-11.935c-17.792-5.6-17.583-30.913.221-36.28A9.3,9.3,0,0,1,28,4.932a6.756,6.756,0,0,1,9.132-4.4A1.342,1.342,0,0,1,36.085,3a4.077,4.077,0,0,0-5.444,5.07A1.34,1.34,0,0,1,28.2,9.158a6.612,6.612,0,0,0-12,.965,6.509,6.509,0,0,0,.194,4.97m6.066,9.376c-2.187-.384-1.3-4.976,4.1-1.112a8.72,8.72,0,0,1,3.863-5.867A1.34,1.34,0,0,1,31.88,19.74,6.045,6.045,0,0,0,29.563,27.1a8.883,8.883,0,0,1-4.325,11.473,1.341,1.341,0,0,1-1.158-2.418,6.2,6.2,0,0,0-1.614-11.687m10.4,32.175a1.339,1.339,0,0,1-2.457-1.065,10.583,10.583,0,0,0-5.544-13.918A1.34,1.34,0,0,1,25.92,39.2c2.62,0,11.058,7.95,6.95,17.447m-6.662-1.085a1.338,1.338,0,0,1-2.6-.609A12.659,12.659,0,0,0,12.081,39.437a1.342,1.342,0,0,1,.167-2.679c8.037,0,16.332,8.659,13.96,18.8" transform="translate(0 0)" fill="#1c3557" fill-rule="evenodd"/>
  </g>
</svg>
