<svg xmlns="http://www.w3.org/2000/svg" width="525.913" height="383.022" viewBox="0 0 525.913 383.022">
  <path id="Union_1" data-name="Union 1" d="M-2041.4,383.022l63.181-102.813a169.264,169.264,0,0,0,0-177.419L-2041.4,0h96.168l63.037,102.465a169.264,169.264,0,0,1,0,177.419l-63.433,103.138ZM-2383,191.5C-2383,85.747-2297.262,0-2191.489,0c105.749,0,191.511,85.747,191.511,191.5,0,105.781-85.762,191.519-191.511,191.519C-2297.262,383.022-2383,297.284-2383,191.5Zm96.183,0a95.366,95.366,0,0,0,95.328,95.368,95.4,95.4,0,0,0,95.376-95.368,95.429,95.429,0,0,0-95.376-95.376A95.4,95.4,0,0,0-2286.817,191.5Z" transform="translate(2383)" fill="#000"/>
</svg>