<svg xmlns="http://www.w3.org/2000/svg" width="55.073" height="50.228" viewBox="0 0 55.073 50.228">
  <g id="Volume_slash_white" data-name="Volume slash white" transform="translate(-708.855 -1622.386)">
    <g id="Group_143215" data-name="Group 143215">
      <path id="Subtraction_3" data-name="Subtraction 3" d="M-12749.1,4318.448h0a2.483,2.483,0,0,1-1.744-.782l-11.209-11.309a.965.965,0,0,0-.25-.09l-10.841,0a2.848,2.848,0,0,1-2.021-.84,2.873,2.873,0,0,1-.837-2.02v-17.375a2.861,2.861,0,0,1,.837-2.02,2.879,2.879,0,0,1,2.021-.837h10.886a1.62,1.62,0,0,0,.24-.119l1.642-1.658,2.514,2.956-1.443,1.456a4.5,4.5,0,0,1-2.952,1.231h-9.879V4302.4h9.879a4.49,4.49,0,0,1,2.952,1.231l8.555,8.632v-19.479l3.864,4.581v18.666a2.309,2.309,0,0,1-1.389,2.248A2.08,2.08,0,0,1-12749.1,4318.448Zm2.213-24.236,0,0c-1.21-1.433-2.921-3.441-3.651-4.3l-.211-.247v-12.48l-5.7,5.749-2.518-2.953,8.122-8.192a2.481,2.481,0,0,1,1.744-.786,2.118,2.118,0,0,1,.824.167,2.309,2.309,0,0,1,1.389,2.248v20.8Z" transform="translate(13484.855 -2646.781)" fill="#fff"/>
      <g id="Group_143207" data-name="Group 143207" transform="translate(740.779 1623.499)">
        <path id="Path_29620" data-name="Path 29620" d="M385.76,141.069a1.577,1.577,0,0,1-.6-3.034,12.338,12.338,0,0,0,0-22.8,1.577,1.577,0,1,1,1.207-2.913,15.491,15.491,0,0,1,0,28.625,1.566,1.566,0,0,1-.6.121Z" transform="translate(-381.721 -102.553)" fill="#fff"/>
        <path id="Path_29622" data-name="Path 29622" d="M384.765,122.857a.582.582,0,0,1-.223-1.12,4.554,4.554,0,0,0,0-8.414.582.582,0,1,1,.445-1.075,5.718,5.718,0,0,1,0,10.565.578.578,0,0,1-.222.045Z" transform="translate(-383.56 -93.447)" fill="#fff"/>
        <path id="Path_29622_-_Outline" data-name="Path 29622 - Outline" d="M384.778,123.289a1.456,1.456,0,0,1-1.1-.408,1.2,1.2,0,0,1,.494-1.846,3.931,3.931,0,0,0,0-7.264,1.2,1.2,0,0,1,.922-2.226,6.34,6.34,0,0,1,.162,11.646Z" transform="translate(-383.433 -93.319)" fill="#fff"/>
        <path id="Path_29621" data-name="Path 29621" d="M414.775,48.176a1.577,1.577,0,0,1-.6-3.034,22.784,22.784,0,0,0,0-42.1h0A1.577,1.577,0,0,1,415.378.128a25.922,25.922,0,0,1,0,47.927,1.569,1.569,0,0,1-.6.121Z" transform="translate(-408.241 -0.008)" fill="#fff"/>
      </g>
      <line id="Line_773" data-name="Line 773" x2="39" y2="46" transform="translate(720.5 1624.5)" fill="none" stroke="#fff" stroke-linecap="round" stroke-width="3"/>
    </g>
  </g>
</svg>
