<svg xmlns="http://www.w3.org/2000/svg" width="55.074" height="48.168" viewBox="0 0 55.074 48.168">
  <g id="Volume-up_white" data-name="Volume-up white" transform="translate(-574.854 -1623.499)">
    <g id="Group_143209" data-name="Group 143209" transform="translate(6.643 4.527)">
      <path id="Subtraction_1" data-name="Subtraction 1" d="M26.9,47.448a2.463,2.463,0,0,1-1.743-.784L13.949,35.355a1.277,1.277,0,0,0-.251-.088l-10.84,0A2.861,2.861,0,0,1,0,32.41V15.036a2.86,2.86,0,0,1,2.858-2.858H13.744a1.366,1.366,0,0,0,.24-.117L25.157.785A2.311,2.311,0,0,1,27.726.166a2.313,2.313,0,0,1,1.389,2.248V45.034a2.315,2.315,0,0,1-1.39,2.249h0a2.148,2.148,0,0,1-.824.165ZM3.864,31.4h9.879a4.493,4.493,0,0,1,2.951,1.23l8.555,8.631V6.182l-8.555,8.63a4.494,4.494,0,0,1-2.951,1.231H3.864Z" transform="translate(568.212 1619.691)" fill="#fff"/>
      <g id="Group_143207" data-name="Group 143207" transform="translate(600.137 1618.971)">
        <path id="Path_29620" data-name="Path 29620" d="M385.76,141.069a1.577,1.577,0,0,1-.6-3.034,12.338,12.338,0,0,0,0-22.8,1.577,1.577,0,1,1,1.207-2.913,15.491,15.491,0,0,1,0,28.625,1.566,1.566,0,0,1-.6.121Z" transform="translate(-381.721 -102.553)" fill="#fff"/>
        <path id="Path_29622" data-name="Path 29622" d="M384.765,122.857a.582.582,0,0,1-.223-1.12,4.554,4.554,0,0,0,0-8.414.582.582,0,1,1,.445-1.075,5.718,5.718,0,0,1,0,10.565.578.578,0,0,1-.222.045Z" transform="translate(-383.56 -93.447)" fill="#fff"/>
        <path id="Path_29622_-_Outline" data-name="Path 29622 - Outline" d="M384.841,123.3a1.613,1.613,0,0,1-1.159-.424,1.2,1.2,0,0,1,.494-1.846,3.931,3.931,0,0,0,0-7.264,1.2,1.2,0,0,1,.922-2.226,6.34,6.34,0,0,1,.162,11.646Z" transform="translate(-383.433 -93.319)" fill="#fff"/>
        <path id="Path_29621" data-name="Path 29621" d="M414.775,48.176a1.577,1.577,0,0,1-.6-3.034,22.784,22.784,0,0,0,0-42.1h0A1.577,1.577,0,0,1,415.378.128a25.922,25.922,0,0,1,0,47.927,1.569,1.569,0,0,1-.6.121Z" transform="translate(-408.241 -0.008)" fill="#fff"/>
      </g>
    </g>
  </g>
</svg>
